<?xml version="1.0" encoding="UTF-8"?>
<svg id="Layer_1" data-name="Layer 1" xmlns="http://www.w3.org/2000/svg" viewBox="0 0 1080 1080">
  <defs>
    <style>
      .cls-1 {
        fill: #252525;
      }
    </style>
  </defs>
  <g>
    <rect class="cls-1" x="83.39" y="554" width="11.68" height="33.36"/>
    <rect class="cls-1" x="83.39" y="492.64" width="11.68" height="42.37"/>
    <rect class="cls-1" x="134.18" y="492.72" width="11.68" height="42.29"/>
    <rect class="cls-1" x="134.18" y="554" width="11.68" height="33.36"/>
    <rect class="cls-1" x="108.97" y="500.03" width="11.68" height="34.98"/>
    <rect class="cls-1" x="108.97" y="546.69" width="11.68" height="33.36"/>
    <rect class="cls-1" x="53.36" y="535.01" width="52.37" height="11.68"/>
    <rect class="cls-1" x="123.89" y="535.01" width="52.37" height="11.68"/>
    <rect class="cls-1" x="108.97" y="535.01" width="11.68" height="11.68"/>
  </g>
  <g>
    <path class="cls-1" d="M680.81,549.78c0-19.32,12.41-33.52,30.84-33.52s28.92,12.92,28.92,31.99c0,1.41-.13,2.56-.25,3.96h-48.88c.9,12.41,8.45,21.37,20.35,21.37,8.45,0,14.46-4.09,18.3-11.52l9.08,4.35c-5.63,11.26-15.1,16.89-27.64,16.89-18.42,0-30.71-14.08-30.71-33.52ZM730.07,543.77c-1.28-10.75-7.42-18.04-18.42-18.04s-17.92,7.42-19.84,18.04h38.26Z"/>
    <path class="cls-1" d="M209.97,496.18h13.56l32.63,65.39,32.25-65.39h13.43v87.14h-11.26v-67.05c-1.02,2.43-2.18,4.86-3.2,6.91l-30.71,61.29h-1.41l-30.71-60.78c-1.02-2.05-2.18-4.48-3.2-6.91v66.54h-11.39v-87.14Z"/>
    <path class="cls-1" d="M448.65,519.85h10.75c0,4.22-.13,7.29-.26,11.39l.77.13c3.71-8.06,10.49-12.03,19.06-12.03,1.28,0,2.18,0,3.71.26l-.13,9.85c-1.79-.13-3.2-.13-4.99-.13-11.64,0-18.04,7.81-18.04,18.94v35.06h-10.88v-63.46Z"/>
    <path class="cls-1" d="M487.03,503.48c0-4.22,3.07-7.17,7.42-7.17s7.55,2.94,7.55,7.17-3.07,7.16-7.55,7.16-7.42-2.94-7.42-7.16ZM489.07,519.85h10.88v63.46h-10.88v-63.46Z"/>
    <path class="cls-1" d="M507.36,520.11v-.25h11.52l19.83,50.8,19.96-50.8h11.52v.25l-26.74,64.1h-9.47l-26.62-64.1Z"/>
    <path class="cls-1" d="M570.55,551.71c0-18.94,11.13-33.27,28.66-33.27,9.85,0,17.15,4.35,21.75,13.05h.9c-.26-4.09-.26-7.16-.26-11.64h10.62v63.46h-10.62c0-4.35,0-7.42.26-11.64l-.9-.13c-4.74,8.83-12.54,13.18-22.26,13.18-17.4,0-28.15-14.2-28.15-33.01ZM621.99,551.59c0-13.82-8.06-23.42-20.73-23.42s-19.96,10.23-19.96,23.67,7.55,23.16,19.96,23.16,20.73-9.47,20.73-23.42Z"/>
    <path class="cls-1" d="M787,551.59c0-19.32,12.67-33.52,31.73-33.52s31.48,14.2,31.48,33.39-12.54,33.52-31.48,33.52-31.73-14.2-31.73-33.39ZM839.46,551.46c0-13.3-7.94-23.67-20.73-23.67s-20.86,10.36-20.86,23.8,8.06,23.67,20.86,23.67,20.73-10.49,20.73-23.8Z"/>
    <path class="cls-1" d="M857.58,558.49v-38.64h10.75v38.26c0,10.24,6.27,17.28,16.38,17.28s16.5-7.04,16.5-17.28v-38.26h10.75v38.64c0,16.38-10.75,26.74-27.25,26.74s-27.13-10.36-27.13-26.74Z"/>
    <path class="cls-1" d="M922.82,519.85h10.75c0,4.22-.13,7.29-.26,11.39l.77.13c3.71-8.06,10.49-12.03,19.06-12.03,1.28,0,2.18,0,3.71.26l-.13,9.85c-1.79-.13-3.2-.13-4.99-.13-11.64,0-18.04,7.81-18.04,18.94v35.06h-10.88v-63.46Z"/>
    <g>
      <path class="cls-1" d="M1019.91,575.25c.42-.22.74-.52.94-.91.2-.39.31-.83.31-1.33s-.1-.94-.31-1.34c-.2-.39-.52-.7-.94-.92-.43-.23-.97-.34-1.63-.34h-2.86v8.47h1.03v-3.31h1.85c.08,0,.14-.02.21-.02l1.79,3.33h1.19l-1.93-3.52c.12-.04.25-.07.35-.12ZM1016.44,571.32h1.8c.46,0,.83.07,1.1.21.28.14.48.34.61.59.13.25.19.55.19.89s-.06.63-.19.88c-.13.24-.33.43-.6.57-.28.13-.64.2-1.09.2h-1.82v-3.33Z"/>
      <path class="cls-1" d="M1018.16,566.18c-4.67,0-8.47,3.8-8.47,8.47s3.8,8.47,8.47,8.47,8.47-3.8,8.47-8.47-3.8-8.47-8.47-8.47ZM1018.16,582.13c-4.13,0-7.48-3.36-7.48-7.48s3.36-7.48,7.48-7.48,7.48,3.36,7.48,7.48-3.36,7.48-7.48,7.48Z"/>
    </g>
    <polygon class="cls-1" points="663.29 519.85 663.29 502.19 652.41 502.19 652.41 519.85 642.18 519.85 642.18 529.58 652.41 529.58 658.06 529.58 658.06 532.36 652.41 532.36 652.41 583.32 663.29 583.32 663.29 529.58 678.9 529.58 678.9 519.85 663.29 519.85"/>
    <polygon class="cls-1" points="322.53 540.96 310.89 540.96 328.69 583.3 339.34 583.3 322.53 540.96"/>
    <polygon class="cls-1" points="362.71 540.96 345.69 583.3 356.44 583.3 374.23 540.96 362.71 540.96"/>
    <path class="cls-1" d="M981.79,569.24c-6.78-1.92-12.67-3.84-12.67-9.85s4.86-9.21,11.52-9.21c4.86,0,8.96,2.05,12.41,6.02l7.16-6.91c-5.12-5.63-11.64-8.32-19.45-8.32-12.28,0-21.75,7.16-21.75,18.81s9.34,15.87,19.58,18.81c4.22,1.17,8.14,2.4,10.56,4.61h11.91c-2.33-8.2-10.43-11.36-19.27-13.95Z"/>
    <polygon class="cls-1" points="731.14 496.18 731.14 506.55 758.63 506.55 758.63 506.54 764.21 506.54 764.21 509.34 758.65 509.34 758.65 583.32 769.91 583.32 769.91 506.55 797.29 506.55 797.29 496.18 731.14 496.18"/>
    <path class="cls-1" d="M413.11,496.18h-29.94v87.14h11.39v-32.26h-5.59v-2.81h5.64s11.01,0,11.01,0h6.98c17.28,0,28.4-9.85,28.4-26.1s-11-25.98-27.89-25.98ZM412.21,538.53h-17.79v-32.25h17.66c11.77,0,17.53,6.65,17.53,16.12s-6.01,16.12-17.4,16.12Z"/>
  </g>
</svg>
