<?xml version="1.0" encoding="UTF-8"?>
<svg id="Layer_1" data-name="Layer 1" xmlns="http://www.w3.org/2000/svg" viewBox="0 0 1080 1080">
  <defs>
    <style>
      .cls-1 {
        fill: #252525;
      }
    </style>
  </defs>
  <rect class="cls-1" x="470.59" y="482.48" width="20.01" height="57.17"/>
  <rect class="cls-1" x="470.59" y="377.33" width="20.01" height="74.54"/>
  <rect class="cls-1" x="557.63" y="377.46" width="20.01" height="73.22"/>
  <rect class="cls-1" x="557.63" y="482.48" width="20.01" height="57.17"/>
  <rect class="cls-1" x="419.11" y="449.93" width="90.95" height="20.01"/>
  <rect class="cls-1" x="538.75" y="449.93" width="90.99" height="20.01"/>
  <polygon class="cls-1" points="514.42 389.99 514.42 449.93 514.42 469.95 514.42 527.12 534.43 527.12 534.43 469.95 534.43 449.93 534.43 389.99 514.42 389.99"/>
  <g>
    <path class="cls-1" d="M1018.16,690.78c.5-.26.88-.62,1.12-1.08.24-.46.36-.99.36-1.58s-.12-1.12-.36-1.59c-.24-.47-.62-.83-1.12-1.1-.51-.27-1.15-.4-1.94-.4h-3.41v10.09h1.22v-3.94h2.21c.09,0,.16-.02.25-.02l2.14,3.96h1.42l-2.3-4.19c.14-.05.3-.08.42-.14ZM1014.03,686.11h2.15c.54,0,.98.08,1.32.25.33.16.57.4.72.7.15.3.23.65.23,1.06s-.07.75-.22,1.04c-.15.29-.39.52-.72.67-.33.16-.76.24-1.3.24h-2.17v-3.96Z"/>
    <path class="cls-1" d="M1016.07,679.98c-5.56,0-10.09,4.52-10.09,10.09s4.53,10.09,10.09,10.09,10.09-4.53,10.09-10.09-4.53-10.09-10.09-10.09ZM1016.07,698.98c-4.91,0-8.91-4-8.91-8.91s4-8.91,8.91-8.91,8.91,4,8.91,8.91-4,8.91-8.91,8.91Z"/>
  </g>
  <polygon class="cls-1" points="187.85 649.96 173.99 649.96 195.18 700.37 207.86 700.37 187.85 649.96"/>
  <g>
    <path class="cls-1" d="M614.42,660.46c0-23,14.78-39.91,36.71-39.91s34.43,15.38,34.43,38.09c0,1.67-.15,3.05-.3,4.72h-58.2c1.07,14.78,10.06,25.44,24.22,25.44,10.06,0,17.22-4.87,21.78-13.71l10.81,5.18c-6.7,13.41-17.97,20.11-32.9,20.11-21.94,0-36.56-16.76-36.56-39.91ZM673.07,653.31c-1.52-12.8-8.84-21.48-21.94-21.48s-21.33,8.84-23.62,21.48h45.55Z"/>
    <path class="cls-1" d="M53.84,596.64h16.15l38.84,77.85,38.39-77.85h16v103.74h-13.41v-79.83c-1.22,2.89-2.59,5.79-3.81,8.22l-36.56,72.97h-1.68l-36.56-72.36c-1.22-2.44-2.59-5.33-3.81-8.23v79.22h-13.56v-103.74Z"/>
    <path class="cls-1" d="M338.01,624.83h12.8c0,5.03-.15,8.68-.31,13.56l.91.15c4.42-9.6,12.49-14.32,22.7-14.32,1.53,0,2.59,0,4.42.31l-.15,11.73c-2.13-.15-3.81-.15-5.94-.15-13.86,0-21.48,9.29-21.48,22.55v41.74h-12.95v-75.56Z"/>
    <path class="cls-1" d="M383.7,605.33c0-5.03,3.66-8.53,8.84-8.53s8.99,3.5,8.99,8.53-3.66,8.53-8.99,8.53-8.84-3.5-8.84-8.53ZM386.14,624.83h12.95v75.56h-12.95v-75.56Z"/>
    <path class="cls-1" d="M407.91,625.13v-.3h13.71l23.61,60.48,23.77-60.48h13.71v.3l-31.84,76.32h-11.27l-31.69-76.32Z"/>
    <path class="cls-1" d="M483.15,662.76c0-22.55,13.25-39.61,34.12-39.61,11.73,0,20.41,5.18,25.9,15.54h1.07c-.31-4.87-.31-8.53-.31-13.86h12.64v75.56h-12.64c0-5.18,0-8.84.31-13.86l-1.07-.15c-5.64,10.51-14.93,15.69-26.51,15.69-20.72,0-33.51-16.91-33.51-39.31ZM544.39,662.61c0-16.45-9.6-27.88-24.68-27.88s-23.76,12.19-23.76,28.18,8.99,27.58,23.76,27.58,24.68-11.28,24.68-27.88Z"/>
    <path class="cls-1" d="M740.85,662.61c0-23,15.08-39.91,37.78-39.91s37.48,16.91,37.48,39.76-14.93,39.91-37.48,39.91-37.78-16.91-37.78-39.76ZM803.31,662.45c0-15.84-9.45-28.18-24.68-28.18s-24.83,12.34-24.83,28.34,9.6,28.18,24.83,28.18,24.68-12.49,24.68-28.34Z"/>
    <path class="cls-1" d="M824.88,670.83v-46h12.8v45.55c0,12.19,7.46,20.57,19.5,20.57s19.65-8.38,19.65-20.57v-45.55h12.8v46c0,19.5-12.8,31.84-32.45,31.84s-32.3-12.34-32.3-31.84Z"/>
    <path class="cls-1" d="M902.55,624.83h12.8c0,5.03-.15,8.68-.31,13.56l.91.15c4.42-9.6,12.49-14.32,22.7-14.32,1.53,0,2.59,0,4.42.31l-.15,11.73c-2.13-.15-3.81-.15-5.94-.15-13.86,0-21.48,9.29-21.48,22.55v41.74h-12.95v-75.56Z"/>
    <polygon class="cls-1" points="593.56 624.83 593.56 603.8 580.61 603.8 580.61 624.83 568.43 624.83 568.43 636.41 580.61 636.41 587.33 636.41 587.33 639.72 580.61 639.72 580.61 700.39 593.56 700.39 593.56 636.41 612.14 636.41 612.14 624.83 593.56 624.83"/>
    <polygon class="cls-1" points="235.69 649.96 215.42 700.37 228.22 700.37 249.4 649.96 235.69 649.96"/>
    <path class="cls-1" d="M972.77,683.63c-8.07-2.28-15.08-4.57-15.08-11.73s5.79-10.97,13.71-10.97c5.79,0,10.66,2.44,14.78,7.16l8.53-8.23c-6.09-6.7-13.86-9.9-23.15-9.9-14.62,0-25.9,8.53-25.9,22.39s11.12,18.89,23.31,22.4c5.03,1.4,9.69,2.86,12.57,5.48h14.18c-2.78-9.77-12.41-13.52-22.94-16.6Z"/>
    <polygon class="cls-1" points="674.34 596.64 674.34 608.98 707.07 608.98 707.07 608.98 713.72 608.98 713.72 612.31 707.09 612.31 707.09 700.39 720.5 700.39 720.5 608.98 753.1 608.98 753.1 596.64 674.34 596.64"/>
    <path class="cls-1" d="M295.69,596.64h-35.65v103.74h13.56v-38.41h-6.65v-3.34h6.72s13.11,0,13.11,0h8.31c20.57,0,33.82-11.73,33.82-31.08s-13.1-30.93-33.21-30.93ZM294.62,647.07h-21.18v-38.39h21.02c14.01,0,20.87,7.92,20.87,19.19s-7.16,19.2-20.72,19.2Z"/>
  </g>
</svg>