<?xml version="1.0" encoding="UTF-8"?>
<svg id="Layer_1" data-name="Layer 1" xmlns="http://www.w3.org/2000/svg" viewBox="0 0 1080 1080">
  <defs>
    <style>
      .cls-1 {
        fill: #252525;
      }
    </style>
  </defs>
  <path class="cls-1" d="M717.31,553.76c0-29.47,18.93-51.14,47.04-51.14s44.11,19.71,44.11,48.79c0,2.14-.19,3.9-.39,6.05h-74.56c1.37,18.93,12.88,32.6,31.03,32.6,12.88,0,22.06-6.25,27.91-17.57l13.86,6.63c-8.59,17.18-23.03,25.77-42.16,25.77-28.1,0-46.84-21.47-46.84-51.14ZM792.45,544.59c-1.95-16.4-11.32-27.52-28.1-27.52s-27.33,11.32-30.26,27.52h58.36Z"/>
  <path class="cls-1" d="M263.37,329.51h20.69l49.77,99.74,49.19-99.74h20.49v132.91h-17.17v-102.27c-1.56,3.71-3.32,7.42-4.88,10.54l-46.84,93.49h-2.15l-46.84-92.71c-1.56-3.13-3.32-6.83-4.88-10.54v101.49h-17.37v-132.91Z"/>
  <path class="cls-1" d="M363.19,508.11h16.4c0,6.44-.2,11.12-.39,17.37l1.17.19c5.66-12.29,16-18.34,29.08-18.34,1.95,0,3.32,0,5.66.39l-.19,15.03c-2.73-.19-4.88-.19-7.61-.19-17.76,0-27.52,11.91-27.52,28.89v53.48h-16.59v-96.8Z"/>
  <path class="cls-1" d="M421.72,483.13c0-6.44,4.68-10.93,11.32-10.93s11.51,4.49,11.51,10.93-4.68,10.93-11.51,10.93-11.32-4.49-11.32-10.93ZM424.84,508.11h16.59v96.8h-16.59v-96.8Z"/>
  <path class="cls-1" d="M452.74,508.5v-.39h17.57l30.25,77.48,30.45-77.48h17.57v.39l-40.79,97.78h-14.44l-40.6-97.78Z"/>
  <path class="cls-1" d="M549.13,556.71c0-28.89,16.98-50.74,43.72-50.74,15.03,0,26.15,6.63,33.18,19.91h1.37c-.39-6.25-.39-10.93-.39-17.76h16.2v96.8h-16.2c0-6.64,0-11.32.39-17.76l-1.37-.2c-7.22,13.47-19.13,20.11-33.96,20.11-26.54,0-42.94-21.66-42.94-50.36ZM627.58,556.51c0-21.08-12.3-35.72-31.62-35.72s-30.44,15.61-30.44,36.1,11.51,35.33,30.44,35.33,31.62-14.45,31.62-35.72Z"/>
  <polygon class="cls-1" points="690.58 508.11 690.58 481.17 673.99 481.17 673.99 508.11 658.38 508.11 658.38 522.94 673.99 522.94 682.6 522.94 682.6 527.18 673.99 527.18 673.99 604.91 690.58 604.91 690.58 522.94 714.39 522.94 714.39 508.11 690.58 508.11"/>
  <polygon class="cls-1" points="435.06 397.81 417.3 397.81 444.45 462.4 460.7 462.4 435.06 397.81"/>
  <polygon class="cls-1" points="496.35 397.81 470.38 462.4 486.78 462.4 513.91 397.81 496.35 397.81"/>
  <g>
    <path class="cls-1" d="M451.17,699.16c0-29.47,19.32-51.14,48.4-51.14s48.01,21.66,48.01,50.94-19.13,51.14-48.01,51.14-48.4-21.66-48.4-50.94ZM531.19,698.97c0-20.29-12.1-36.1-31.62-36.1s-31.81,15.81-31.81,36.3,12.3,36.1,31.81,36.1,31.62-16,31.62-36.3Z"/>
    <path class="cls-1" d="M558.84,709.7v-58.94h16.4v58.35c0,15.62,9.56,26.35,24.98,26.35s25.18-10.73,25.18-26.35v-58.35h16.4v58.94c0,24.98-16.4,40.79-41.57,40.79s-41.38-15.81-41.38-40.79Z"/>
    <path class="cls-1" d="M658.34,650.76h16.4c0,6.44-.2,11.12-.39,17.37l1.17.19c5.66-12.29,16-18.34,29.08-18.34,1.95,0,3.32,0,5.66.39l-.19,15.03c-2.73-.19-4.88-.19-7.61-.19-17.76,0-27.52,11.91-27.52,28.89v53.48h-16.59v-96.8Z"/>
    <g>
      <path class="cls-1" d="M806.45,735.26c.65-.33,1.12-.8,1.43-1.38.31-.59.47-1.26.47-2.03s-.16-1.44-.47-2.04c-.31-.6-.79-1.07-1.44-1.41-.65-.34-1.48-.52-2.49-.52h-4.37v12.93h1.57v-5.05h2.83c.12,0,.21-.02.32-.03l2.74,5.08h1.82l-2.94-5.37c.18-.06.38-.1.54-.18ZM801.16,729.27h2.75c.7,0,1.26.11,1.68.32.42.21.73.51.93.9.19.39.29.84.29,1.35s-.1.96-.29,1.34c-.19.37-.5.66-.92.86-.42.2-.98.3-1.67.3h-2.78v-5.08Z"/>
      <path class="cls-1" d="M803.78,721.42c-7.13,0-12.93,5.8-12.93,12.92s5.8,12.93,12.93,12.93,12.93-5.8,12.93-12.93-5.8-12.92-12.93-12.92ZM803.78,745.76c-6.29,0-11.41-5.12-11.41-11.42s5.12-11.41,11.41-11.41,11.42,5.12,11.42,11.41-5.12,11.42-11.42,11.42Z"/>
    </g>
    <path class="cls-1" d="M748.3,726.09c-10.34-2.93-19.32-5.86-19.32-15.03s7.42-14.05,17.57-14.05c7.42,0,13.66,3.13,18.93,9.18l10.93-10.54c-7.8-8.59-17.76-12.68-29.66-12.68-18.74,0-33.18,10.93-33.18,28.69s14.25,24.2,29.86,28.69c6.44,1.79,12.42,3.67,16.11,7.03h18.17c-3.56-12.51-15.9-17.32-29.39-21.27Z"/>
    <polygon class="cls-1" points="365.97 614.65 365.97 630.46 407.9 630.46 407.9 630.45 416.42 630.45 416.42 634.73 407.93 634.73 407.93 747.57 425.1 747.57 425.1 630.46 466.87 630.46 466.87 614.65 365.97 614.65"/>
  </g>
  <path class="cls-1" d="M308.97,472h-45.67v132.91h17.37v-49.21h-8.53v-4.28h8.61s16.8.01,16.8.01h10.64c26.35,0,43.33-15.03,43.33-39.81s-16.78-39.62-42.54-39.62ZM307.6,536.6h-27.13v-49.19h26.94c17.95,0,26.74,10.15,26.74,24.59s-9.17,24.6-26.55,24.6Z"/>
</svg>